<?xml version="1.0"?>
<svg width="999.598" height="1600" xmlns="http://www.w3.org/2000/svg" xmlns:svg="http://www.w3.org/2000/svg">
 <desc>Created with Pixso.</desc>
 <g class="layer">
  <title>Layer 1</title>
  <path d="m548.19,31.85l-59.45,35.41l430.07,731.73l80.34,0l-450.96,-767.14z" fill="#E6F2DC" fill-rule="nonzero" id="Rectangle 122"/>
  <path d="m548.64,1566.28l-59.45,-35.41l430.07,-731.73l80.33,0l-450.95,767.14z" fill="#E6F2DC" fill-rule="nonzero" id="Rectangle 127"/>
  <path d="m389.31,31l-59.46,35.4l430.08,731.74l80.33,0l-450.95,-767.14z" fill="#E6F2DC" fill-rule="nonzero" id="Rectangle 123"/>
  <path d="m389.75,1565.06l-59.45,-35.4l430.07,-731.74l80.34,0l-450.96,767.14z" fill="#E6F2DC" fill-rule="nonzero" id="Rectangle 128"/>
  <path d="m225.52,34.24l-59.46,35.41l430.08,731.73l80.33,0l-450.95,-767.14z" fill="#E6F2DC" fill-rule="nonzero" id="Rectangle 124"/>
  <path d="m225.96,1568l-59.45,-35.41l430.07,-731.74l80.34,0l-450.96,767.15z" fill="#E6F2DC" fill-rule="nonzero" id="Rectangle 129"/>
  <path d="m59.5,33.24l-59.46,35.41l430.08,731.73l80.33,0l-450.95,-767.14z" fill="#E6F2DC" fill-rule="nonzero" id="Rectangle 125"/>
  <path d="m59.94,1566.96l-59.45,-35.4l430.07,-731.74l80.34,0l-450.96,767.14z" fill="#E6F2DC" fill-rule="nonzero" id="Rectangle 130"/>
  <path d="m468.15,-105.57l-59.45,35.41l430.07,731.73l80.34,0l-450.96,-767.14z" fill="#E6F2DC" fill-rule="nonzero" id="svg_1"/>
  <path d="m304.15,-113.57l-59.45,35.41l430.07,731.73l80.34,0l-450.96,-767.14z" fill="#E6F2DC" fill-rule="nonzero" id="svg_2"/>
  <path d="m146.15,-100.57l-59.45,35.41l430.07,731.73l80.34,0l-450.96,-767.14z" fill="#E6F2DC" fill-rule="nonzero" id="svg_3"/>
  <path d="m-61.85,-174.57l-59.45,35.41l430.07,731.73l80.34,0l-450.96,-767.14z" fill="#E6F2DC" fill-rule="nonzero" id="svg_4"/>
  <path d="m-21.06,1704.96l-59.45,-35.4l430.07,-731.74l80.34,0l-450.96,767.14z" fill="#E6F2DC" fill-rule="nonzero" id="svg_5"/>
  <path d="m131.94,1727.96l-59.45,-35.4l430.07,-731.74l80.34,0l-450.96,767.14z" fill="#E6F2DC" fill-rule="nonzero" id="svg_6"/>
  <path d="m310.94,1698.96l-59.45,-35.4l430.07,-731.74l80.34,0l-450.96,767.14z" fill="#E6F2DC" fill-rule="nonzero" id="svg_7"/>
  <path d="m442.94,1744.96l-59.45,-35.4l430.07,-731.74l80.34,0l-450.96,767.14z" fill="#E6F2DC" fill-rule="nonzero" id="svg_8"/>
 </g>
</svg>