<?xml version="1.0"?>
<svg width="999.598" height="1465" xmlns="http://www.w3.org/2000/svg" xmlns:svg="http://www.w3.org/2000/svg">
 <desc>Created with Pixso.</desc>

 <g class="layer">
  <title>Layer 1</title>
  <path d="m451.39,-36.15l59.46,35.41l-430.07,731.73l-80.34,0l450.95,-767.14z" fill="#E6F2DC" fill-opacity="1" fill-rule="nonzero" id="Rectangle 122"/>
  <path d="m450.95,1498.28l59.45,-35.41l-430.07,-731.73l-80.33,0l450.95,767.14z" fill="#E6F2DC" fill-opacity="1" fill-rule="nonzero" id="Rectangle 127"/>
  <path d="m610.28,-37l59.46,35.4l-430.08,731.74l-80.33,0l450.95,-767.14z" fill="#E6F2DC" fill-opacity="1" fill-rule="nonzero" id="Rectangle 123"/>
  <path d="m609.84,1497.06l59.45,-35.4l-430.07,-731.74l-80.34,0l450.96,767.14z" fill="#E6F2DC" fill-opacity="1" fill-rule="nonzero" id="Rectangle 128"/>
  <path d="m774.07,-34.76l59.46,35.41l-430.08,731.73l-80.33,0l450.95,-767.14z" fill="#E6F2DC" fill-opacity="1" fill-rule="nonzero" id="Rectangle 124"/>
  <path d="m773.63,1499l59.45,-35.41l-430.07,-731.74l-80.34,0l450.96,767.15z" fill="#E6F2DC" fill-opacity="1" fill-rule="nonzero" id="Rectangle 129"/>
  <path d="m940.09,-34.76l59.45,35.41l-430.07,731.73l-80.33,0l450.95,-767.14z" fill="#E6F2DC" fill-opacity="1" fill-rule="nonzero" id="Rectangle 125"/>
  <path d="m939.65,1498.96l59.45,-35.4l-430.07,-731.74l-80.34,0l450.96,767.14z" fill="#E6F2DC" fill-opacity="1" fill-rule="nonzero" id="Rectangle 130"/>
 </g>
</svg>